<svg width="20" height="20" viewBox="0 0 20 20" fill="none" xmlns="http://www.w3.org/2000/svg">
<path fillRule="evenodd" clipRule="evenodd" d="M11.5054 2.28967C10.666 1.47766 9.33392 1.47766 8.49455 2.28967C8.01456 2.75402 7.34714 2.97087 6.68589 2.87734C5.52953 2.71378 4.45183 3.49678 4.25005 4.64708C4.13466 5.30487 3.72218 5.87261 3.13224 6.18562C2.10059 6.73298 1.68894 7.9999 2.20183 9.04911C2.49512 9.6491 2.49512 10.3509 2.20183 10.9509C1.68894 12.0001 2.10059 13.267 3.13224 13.8143C3.72218 14.1274 4.13466 14.6951 4.25005 15.3529C4.45183 16.5032 5.52953 17.2862 6.68589 17.1226C7.34714 17.0291 8.01456 17.246 8.49455 17.7103C9.33392 18.5223 10.666 18.5223 11.5054 17.7103C11.9854 17.246 12.6528 17.0291 13.3141 17.1226C14.4704 17.2862 15.5481 16.5032 15.7499 15.3529C15.8653 14.6951 16.2778 14.1274 16.8677 13.8143C17.8994 13.267 18.311 12.0001 17.7981 10.9509C17.5048 10.3509 17.5048 9.6491 17.7981 9.04911C18.311 7.9999 17.8994 6.73298 16.8677 6.18562C16.2778 5.87261 15.8653 5.30487 15.7499 4.64708C15.5481 3.49678 14.4704 2.71378 13.3141 2.87734C12.6528 2.97087 11.9854 2.75402 11.5054 2.28967ZM9.99998 14.1667C12.3012 14.1667 14.1666 12.3012 14.1666 9.99998C14.1666 7.6988 12.3012 5.83332 9.99998 5.83332C7.69879 5.83332 5.83331 7.6988 5.83331 9.99998C5.83331 12.3012 7.69879 14.1667 9.99998 14.1667Z" fill="#667185"/>
</svg>
